<svg width="812" height="151" viewBox="0 0 812 151" fill="none" xmlns="http://www.w3.org/2000/svg">
<path d="M276.334 115H224.551V32.59H273.997C279.655 32.59 284.411 33.369 288.265 34.927C292.119 36.403 295.03 38.658 296.998 41.692C298.966 44.644 299.95 48.293 299.95 52.639C299.95 57.723 298.474 61.987 295.522 65.431C292.57 68.793 287.65 70.72 280.762 71.212V72.319C288.388 72.893 294.046 74.943 297.736 78.469C301.508 81.995 303.394 86.546 303.394 92.122C303.394 96.796 302.41 100.855 300.442 104.299C298.474 107.743 295.481 110.408 291.463 112.294C287.527 114.098 282.484 115 276.334 115ZM243.001 80.56V98.395H274.12C277.892 98.395 280.598 97.739 282.238 96.427C283.878 95.033 284.698 92.696 284.698 89.416C284.698 86.136 283.878 83.84 282.238 82.528C280.598 81.216 277.892 80.56 274.12 80.56H243.001ZM243.001 49.195V65.308H271.906C275.35 65.308 277.81 64.693 279.286 63.463C280.762 62.151 281.5 60.101 281.5 57.313C281.5 54.525 280.721 52.475 279.163 51.163C277.605 49.851 275.104 49.195 271.66 49.195H243.001ZM343.044 116.23C336.074 116.23 329.924 114.918 324.594 112.294C319.346 109.67 315.246 105.98 312.294 101.224C309.342 96.386 307.866 90.728 307.866 84.25C307.866 77.69 309.342 72.032 312.294 67.276C315.246 62.438 319.346 58.707 324.594 56.083C329.924 53.459 336.074 52.147 343.044 52.147C350.096 52.147 356.246 53.459 361.494 56.083C366.742 58.707 370.842 62.438 373.794 67.276C376.746 72.032 378.222 77.69 378.222 84.25C378.222 90.728 376.746 96.386 373.794 101.224C370.842 105.98 366.742 109.67 361.494 112.294C356.246 114.918 350.096 116.23 343.044 116.23ZM343.044 99.871C349.276 99.871 353.622 98.641 356.082 96.181C358.624 93.639 359.895 89.662 359.895 84.25C359.895 78.756 358.624 74.738 356.082 72.196C353.622 69.654 349.276 68.383 343.044 68.383C336.812 68.383 332.425 69.654 329.883 72.196C327.423 74.738 326.193 78.756 326.193 84.25C326.193 89.662 327.423 93.639 329.883 96.181C332.425 98.641 336.812 99.871 343.044 99.871ZM418.598 116.23C411.628 116.23 405.478 114.918 400.148 112.294C394.9 109.67 390.8 105.98 387.848 101.224C384.896 96.386 383.42 90.728 383.42 84.25C383.42 77.69 384.896 72.032 387.848 67.276C390.8 62.438 394.9 58.707 400.148 56.083C405.478 53.459 411.628 52.147 418.598 52.147C425.65 52.147 431.8 53.459 437.048 56.083C442.296 58.707 446.396 62.438 449.348 67.276C452.3 72.032 453.776 77.69 453.776 84.25C453.776 90.728 452.3 96.386 449.348 101.224C446.396 105.98 442.296 109.67 437.048 112.294C431.8 114.918 425.65 116.23 418.598 116.23ZM418.598 99.871C424.83 99.871 429.176 98.641 431.636 96.181C434.178 93.639 435.449 89.662 435.449 84.25C435.449 78.756 434.178 74.738 431.636 72.196C429.176 69.654 424.83 68.383 418.598 68.383C412.366 68.383 407.979 69.654 405.437 72.196C402.977 74.738 401.747 78.756 401.747 84.25C401.747 89.662 402.977 93.639 405.437 96.181C407.979 98.641 412.366 99.871 418.598 99.871ZM492.43 116.23C482.098 116.23 474.144 114.303 468.568 110.449C462.992 106.513 460.204 100.978 460.204 93.844V93.475H478.654V94.582C478.654 97.37 479.638 99.256 481.606 100.24C483.656 101.142 487.305 101.593 492.553 101.593C497.473 101.593 500.712 101.183 502.27 100.363C503.91 99.461 504.73 98.108 504.73 96.304C504.73 94.582 504.115 93.393 502.885 92.737C501.655 91.999 499.236 91.384 495.628 90.892L478.285 88.801C472.135 88.145 467.379 86.423 464.017 83.635C460.737 80.847 459.097 76.829 459.097 71.581C459.097 67.973 460.163 64.734 462.295 61.864C464.427 58.912 467.707 56.575 472.135 54.853C476.645 53.049 482.426 52.147 489.478 52.147C496.202 52.147 501.901 53.008 506.575 54.73C511.331 56.37 514.939 58.871 517.399 62.233C519.859 65.595 521.089 69.777 521.089 74.779V75.148H502.639V74.41C502.639 72.688 502.27 71.294 501.532 70.228C500.876 69.08 499.523 68.219 497.473 67.645C495.505 67.071 492.635 66.784 488.863 66.784C484.271 66.784 481.196 67.235 479.638 68.137C478.08 68.957 477.301 70.351 477.301 72.319C477.301 73.877 477.916 75.066 479.146 75.886C480.458 76.624 483.123 77.28 487.141 77.854L500.302 79.453C508.502 80.355 514.324 82.241 517.768 85.111C521.212 87.981 522.934 91.958 522.934 97.042C522.934 100.896 521.704 104.258 519.244 107.128C516.784 109.998 513.299 112.253 508.789 113.893C504.279 115.451 498.826 116.23 492.43 116.23ZM573.797 115H558.545C551.329 115 545.671 113.237 541.571 109.711C537.471 106.185 535.421 100.527 535.421 92.737V41.446H553.871V90.646C553.871 93.762 554.527 95.853 555.839 96.919C557.233 97.903 559.529 98.395 562.727 98.395H573.797V115ZM573.797 68.629H525.704V53.377H573.797V68.629ZM623.142 116.23C614.122 116.23 606.25 114.508 599.526 111.064C592.884 107.538 587.759 102.618 584.151 96.304C580.625 89.908 578.862 82.405 578.862 73.795C578.862 65.185 580.625 57.723 584.151 51.409C587.759 45.013 592.884 40.093 599.526 36.649C606.25 33.123 614.122 31.36 623.142 31.36C632.49 31.36 640.485 33.123 647.127 36.649C653.769 40.093 658.894 45.013 662.502 51.409C666.11 57.723 667.914 65.185 667.914 73.795C667.914 82.405 666.11 89.908 662.502 96.304C658.894 102.618 653.769 107.538 647.127 111.064C640.485 114.508 632.49 116.23 623.142 116.23ZM623.142 98.518C629.21 98.518 634.048 97.739 637.656 96.181C641.346 94.541 644.011 91.917 645.651 88.309C647.373 84.701 648.234 79.863 648.234 73.795C648.234 67.645 647.373 62.807 645.651 59.281C644.011 55.673 641.346 53.09 637.656 51.532C634.048 49.892 629.21 49.072 623.142 49.072C617.156 49.072 612.359 49.892 608.751 51.532C605.143 53.09 602.519 55.673 600.879 59.281C599.239 62.807 598.419 67.645 598.419 73.795C598.419 79.863 599.239 84.701 600.879 88.309C602.519 91.917 605.143 94.541 608.751 96.181C612.359 97.739 617.156 98.518 623.142 98.518ZM710.892 115H687.891L671.04 53.377H690.105L697.362 81.544L699.945 100.732H701.175L706.095 79.699L715.443 53.377H739.182L748.407 79.699L753.327 100.732H754.557L757.263 81.544L764.397 53.377H783.216L765.75 115H742.749L732.171 85.357L727.62 68.383H726.267L721.593 85.357L710.892 115ZM806.599 115H788.149V32.59H806.599V115Z" fill="white"/>
<path d="M175.381 111.446C180.517 105.149 184.154 98.3693 186.141 90.7749C190.64 73.4005 187.603 57.3968 176.993 42.8749C176.618 42.3563 175.494 42.0228 174.856 42.171C171.107 43.1342 169.833 47.2092 171.745 50.8397C173.694 54.5443 175.869 58.2488 177.031 62.2127C182.055 79.1426 178.568 94.4054 166.834 107.742C164.247 110.668 164.209 112.706 166.983 115.41C169.458 117.855 171.97 120.263 174.744 122.968C173.919 123.042 173.507 123.153 173.057 123.153C159.56 123.153 146.064 123.19 132.568 123.153C110.486 123.079 92.4907 110.372 86.0799 90.0711C81.7685 76.3642 83.643 63.25 91.216 50.9879C93.353 47.5056 92.1908 43.5788 88.6667 42.2451C87.5045 41.8006 86.7547 41.9117 85.9674 42.986C77.6821 54.4331 73.9706 67.1398 75.2453 81.1801C76.5574 95.4056 82.5933 107.483 93.203 117.151C103.813 126.857 116.484 131.859 130.956 131.933C148.876 132.081 166.796 131.933 184.754 131.97C186.966 131.97 188.728 131.34 189.627 129.228C190.527 127.117 189.702 125.413 188.165 123.894C183.892 119.819 179.693 115.67 175.381 111.446Z" fill="white"/>
<path d="M165.728 61.1059C165.551 60.8045 165.299 60.5541 164.996 60.3791C164.693 60.2041 164.35 60.1105 164.001 60.1074H155.999C155.65 60.1105 155.307 60.2041 155.004 60.3791C154.701 60.5541 154.449 60.8045 154.272 61.1059L150.271 68.0349C150.094 68.3426 150 68.6916 150 69.0469C150 69.4022 150.094 69.7512 150.271 70.0589L154.272 76.9608C154.449 77.2623 154.701 77.5127 155.004 77.6877C155.307 77.8627 155.65 77.9563 155.999 77.9594H164.001C164.35 77.9563 164.693 77.8627 164.996 77.6877C165.299 77.5127 165.551 77.2623 165.728 76.9608L169.729 70.0319C169.906 69.7242 170 69.3752 170 69.0199C170 68.6646 169.906 68.3156 169.729 68.0079L165.728 61.1059ZM163.373 69.0334C163.373 69.7006 163.176 70.3528 162.805 70.9075C162.434 71.4623 161.907 71.8947 161.291 72.15C160.675 72.4053 159.996 72.4721 159.342 72.342C158.688 72.2118 158.086 71.8905 157.615 71.4187C157.143 70.947 156.822 70.3459 156.691 69.6915C156.561 69.0371 156.628 68.3589 156.883 67.7425C157.139 67.126 157.571 66.5992 158.126 66.2285C158.681 65.8579 159.333 65.66 160 65.66C160.895 65.66 161.753 66.0154 162.385 66.648C163.018 67.2807 163.373 68.1387 163.373 69.0334Z" fill="#01DC82"/>
<path d="M112.728 60.9985C112.551 60.6971 112.299 60.4467 111.996 60.2717C111.693 60.0967 111.35 60.0031 111.001 60H102.999C102.65 60.0031 102.307 60.0967 102.004 60.2717C101.701 60.4467 101.449 60.6971 101.272 60.9985L97.2712 67.9274C97.0935 68.2351 97 68.5842 97 68.9395C97 69.2948 97.0935 69.6438 97.2712 69.9515L101.272 76.8534C101.449 77.1549 101.701 77.4053 102.004 77.5803C102.307 77.7552 102.65 77.8488 102.999 77.8519H111.001C111.35 77.8488 111.693 77.7552 111.996 77.5803C112.299 77.4053 112.551 77.1549 112.728 76.8534L116.729 69.9245C116.906 69.6168 117 69.2678 117 68.9125C117 68.5572 116.906 68.2081 116.729 67.9005L112.728 60.9985ZM110.373 68.926C110.373 69.5932 110.176 70.2454 109.805 70.8001C109.434 71.3549 108.907 71.7872 108.291 72.0426C107.675 72.2979 106.996 72.3647 106.342 72.2345C105.688 72.1044 105.086 71.7831 104.615 71.3113C104.143 70.8395 103.822 70.2385 103.691 69.5841C103.561 68.9297 103.628 68.2514 103.883 67.635C104.139 67.0186 104.571 66.4918 105.126 66.1211C105.681 65.7504 106.333 65.5526 107 65.5526C107.895 65.5526 108.753 65.908 109.385 66.5406C110.018 67.1733 110.373 68.0313 110.373 68.926Z" fill="#01DC82"/>
<path d="M88.7892 26.6366C92.6905 27.3839 96.5918 28.2059 100.531 28.8784C101.356 29.0279 102.406 28.9531 103.081 28.5795C123.001 17.1464 142.92 17.1464 162.877 28.5422C163.589 28.9531 164.602 28.9905 165.428 28.9158C170.117 28.318 174.806 27.5333 179.495 27.0476C181.596 26.8234 183.058 28.1685 183.734 30.074C184.371 31.9422 183.846 33.6235 182.346 34.7444C181.483 35.3796 180.17 35.7159 179.082 35.7906C169.554 36.1269 160.889 38.9291 153.423 44.9446C143.445 52.9776 138.118 63.402 137.481 76.2175C137.331 79.0945 135.567 81 133.017 81C130.503 81 128.628 79.2066 128.553 76.4417C128.027 55.2194 110.772 36.351 87.1761 35.7906C86.3884 35.7532 85.5256 35.7159 84.7753 35.417C82.9372 34.7444 81.7743 32.6895 82.0369 30.7839C82.2995 28.8037 84.0626 27.1597 86.0883 27.0103C86.951 26.9355 87.8514 27.0103 88.7141 27.0103C88.7517 26.8982 88.7892 26.7487 88.7892 26.6366ZM133.017 56.826C137.668 46.9248 144.608 39.4148 153.986 33.6983C139.844 27.4213 126.152 27.3839 112.122 33.7356C121.463 39.4148 128.328 46.9622 133.017 56.826Z" fill="white"/>
<rect x="46" y="43" width="34" height="6" rx="3" fill="#01DC82"/>
<rect x="53" y="98" width="22" height="6" rx="3" fill="#01DC82"/>
<rect x="43" y="87" width="29" height="6" rx="3" fill="#01DC82"/>
<rect x="60" y="109" width="22" height="6" rx="3" fill="#01DC82"/>
<rect x="45" y="65" width="26" height="6" rx="3" fill="#01DC82"/>
<rect y="65" width="23" height="6" rx="3" fill="#01DC82"/>
<rect x="39" y="54" width="36" height="6" rx="3" fill="#01DC82"/>
<rect x="46" y="120" width="46" height="6" rx="3" fill="#01DC82"/>
<rect x="29" y="76" width="41" height="6" rx="3" fill="#01DC82"/>
<rect x="15" y="98" width="35" height="6" rx="3" fill="#01DC82"/>
<rect x="23" y="87" width="17" height="6" rx="3" fill="#01DC82"/>
<rect x="44" y="109" width="13" height="6" rx="3" fill="#01DC82"/>
<rect x="26" y="65" width="16" height="6" rx="3" fill="#01DC82"/>
</svg>
